# xmcd CD database file
#
# Track frame offsets:
#	150
#	14117
#	26910
#	39724
#	53984
#	67940
#	81302
#	94360
#	108913
#	123390
#	138967
#	151836
#	164712
#	177331
#	191338
#	205503
#	219851
#	235354
#	248924
#	263358
#	278085
#	290545
#
# Disc length: 4040 seconds
#
# Revision: 0
# Processed by: cddbd v1.5.2PL0 Copyright (c) Steve Scherf et al.
# Submitted via: CDex 1.51
#
DISCID=3c0fc616
DTITLE=Johnny Dodds - Definitive Dodds 1926-1927
DYEAR=1926
DGENRE=Jazz
TTITLE0=Georgia Bo Bo
TTITLE1=Drop That Sack
TTITLE2=Drop That Sack #2
TTITLE3=Perdido Street Blues
TTITLE4=Gate Mouth
TTITLE5=Too Tight
TTITLE6=Papa Dip
TTITLE7=Mixed Salad
TTITLE8=I Can't Say
TTITLE9=Flat Foot
TTITLE10=Mad Dog
TTITLE11=Weary Blues
TTITLE12=New Orleans Stomp
TTITLE13=Wild Man Blues
TTITLE14=Wild Man Blues #2
TTITLE15=Melancholy
TTITLE16=Melancholy #2
TTITLE17=Come On And Stomp, Stomp, Stomp
TTITLE18=After You've Gone
TTITLE19=After You've Gone #2
TTITLE20=Joe Turner Blues
TTITLE21=When Erasmus Plays His Old Kazoo
EXTD=YEAR: 1926
EXTT0=
EXTT1=
EXTT2=
EXTT3=
EXTT4=
EXTT5=
EXTT6=
EXTT7=
EXTT8=
EXTT9=
EXTT10=
EXTT11=
EXTT12=
EXTT13=
EXTT14=
EXTT15=
EXTT16=
EXTT17=
EXTT18=
EXTT19=
EXTT20=
EXTT21=
PLAYORDER=
